<svg width="27" height="24" viewBox="0 0 27 24" fill="none" xmlns="http://www.w3.org/2000/svg">
    <path d="M3.83 11.8437C3.28634 11.3037 2.85559 10.6608 2.56287 9.95263C2.27015 9.24442 2.1213 8.48505 2.125 7.71874C2.125 6.16889 2.74068 4.6825 3.83659 3.58659C4.93251 2.49067 6.41889 1.87499 7.96875 1.87499C10.1413 1.87499 12.0387 3.05749 13.0425 4.81749H14.5825C15.0928 3.92245 15.8311 3.17862 16.7224 2.66174C17.6137 2.14486 18.626 1.8734 19.6562 1.87499C21.2061 1.87499 22.6925 2.49067 23.7884 3.58659C24.8843 4.6825 25.5 6.16889 25.5 7.71874C25.5 9.32749 24.8125 10.8125 23.795 11.8437L13.8125 21.8125L3.83 11.8437ZM24.7575 12.82C26.0637 11.5 26.875 9.71249 26.875 7.71874C26.875 5.80421 26.1145 3.9681 24.7607 2.61432C23.4069 1.26054 21.5708 0.499994 19.6562 0.499994C17.25 0.499994 15.1187 1.66874 13.8125 3.48374C13.1458 2.55768 12.2678 1.80393 11.2515 1.28502C10.2352 0.76611 9.10986 0.496994 7.96875 0.499994C6.05422 0.499994 4.2181 1.26054 2.86432 2.61432C1.51054 3.9681 0.75 5.80421 0.75 7.71874C0.75 9.71249 1.56125 11.5 2.8675 12.82L13.8125 23.765L24.7575 12.82Z" fill="white" style="fill:white;fill-opacity:1;"/>
</svg>
