<svg width="19" height="17" viewBox="0 0 19 17" fill="none" xmlns="http://www.w3.org/2000/svg">
    <path d="M2.24 8.25C1.84461 7.85723 1.53134 7.3897 1.31845 6.87464C1.10556 6.35959 0.997308 5.80731 1 5.25C1 4.12283 1.44777 3.04183 2.2448 2.2448C3.04183 1.44777 4.12283 1 5.25 1C6.83 1 8.21 1.86 8.94 3.14H10.06C10.4311 2.48906 10.9681 1.94809 11.6163 1.57218C12.2645 1.19627 13.0007 0.998841 13.75 1C14.8772 1 15.9582 1.44777 16.7552 2.2448C17.5522 3.04183 18 4.12283 18 5.25C18 6.42 17.5 7.5 16.76 8.25L9.5 15.5L2.24 8.25ZM17.46 8.96C18.41 8 19 6.7 19 5.25C19 3.85762 18.4469 2.52226 17.4623 1.53769C16.4777 0.553126 15.1424 2.79322e-06 13.75 2.79322e-06C12 2.79322e-06 10.45 0.850003 9.5 2.17C9.0151 1.4965 8.37661 0.948321 7.63748 0.570931C6.89835 0.193541 6.0799 -0.00217956 5.25 2.79322e-06C3.85761 2.79322e-06 2.52226 0.553126 1.53769 1.53769C0.553123 2.52226 0 3.85762 0 5.25C0 6.7 0.59 8 1.54 8.96L9.5 16.92L17.46 8.96Z" fill="#DE0000" style="fill:#DE0000;fill:color(display-p3 0.8702 0.0000 0.0000);fill-opacity:1;"/>
    <path d="M9.5 3C9.5 3 9.5 3 10.26 2.5C11.14 1.34 12.44 0.5 14 0.5C16.49 0.5 18.5 2.51 18.5 5C18.5 5.93 18.22 6.79 17.74 7.5C16.93 8.71 9.5 16.5 9.5 16.5C9.5 16.5 2.07 8.71 1.26 7.5C0.78 6.79 0.5 5.93 0.5 5C0.5 2.51 3.01 0.5 5.5 0.5C7.06 0.5 8.13 1.34 9 2.5C9.76 3.5 9.5 3 9.5 3Z" fill="#DE0000" style="fill:#DE0000;fill:color(display-p3 0.8702 0.0000 0.0000);fill-opacity:1;"/>
</svg>
