<svg width="27" height="24" viewBox="0 0 27 24" fill="none" xmlns="http://www.w3.org/2000/svg">
    <path d="M24.7575 12.82C26.0637 11.5 26.875 9.7125 26.875 7.71875C26.875 5.80422 26.1145 3.9681 24.7607 2.61432C23.4069 1.26054 21.5708 0.5 19.6562 0.5C17.25 0.5 15.1187 1.66875 13.8125 3.48375C13.1458 2.55769 12.2678 1.80394 11.2515 1.28503C10.2352 0.766115 9.10986 0.496999 7.96875 0.5C6.05422 0.5 4.2181 1.26054 2.86432 2.61432C1.51054 3.9681 0.75 5.80422 0.75 7.71875C0.75 9.7125 1.56125 11.5 2.8675 12.82L13.8125 23.765L24.7575 12.82Z" fill="white" style="fill:white;fill-opacity:1;"/>
</svg>
