<svg width="23" height="25" viewBox="0 0 23 25" fill="none" xmlns="http://www.w3.org/2000/svg">
    <path d="M18.8388 24.875C17.9276 24.875 17.1544 24.5565 16.5191 23.9194C15.8848 23.2814 15.5676 22.5068 15.5676 21.5956C15.5676 21.4581 15.6281 21.1112 15.7491 20.5548L5.85325 14.6794C5.55625 15.0222 5.19279 15.2913 4.76288 15.4865C4.33296 15.6818 3.87142 15.7794 3.37825 15.7794C2.47442 15.7794 1.70625 15.4576 1.07375 14.8141C0.44125 14.1706 0.125 13.3993 0.125 12.5C0.125 11.6007 0.44125 10.8294 1.07375 10.1859C1.70625 9.54238 2.47442 9.22062 3.37825 9.22062C3.8705 9.22062 4.33204 9.31825 4.76288 9.5135C5.19371 9.70875 5.55717 9.97825 5.85325 10.322L15.7505 4.47137C15.6863 4.29354 15.64 4.11708 15.6116 3.942C15.5823 3.766 15.5676 3.58633 15.5676 3.403C15.5676 2.49275 15.8871 1.71862 16.526 1.08062C17.1649 0.443542 17.9404 0.125 18.8525 0.125C19.7646 0.125 20.5382 0.444458 21.1735 1.08338C21.8088 1.72229 22.1259 2.49779 22.125 3.40987C22.1241 4.32196 21.8055 5.09563 21.1694 5.73088C20.5332 6.36613 19.7586 6.68329 18.8456 6.68237C18.3488 6.68237 17.8905 6.58063 17.4706 6.37712C17.0508 6.17362 16.6933 5.9 16.3981 5.55625L6.4995 11.4316C6.56367 11.6095 6.60996 11.7864 6.63837 11.9624C6.66771 12.1375 6.68237 12.3167 6.68237 12.5C6.68237 12.6833 6.66771 12.8625 6.63837 13.0376C6.60904 13.2127 6.56321 13.3896 6.50087 13.5684L16.3981 19.4437C16.6942 19.1 17.0517 18.8264 17.4706 18.6229C17.8905 18.4194 18.3488 18.3176 18.8456 18.3176C19.7568 18.3176 20.5314 18.6366 21.1694 19.2746C21.8065 19.9145 22.125 20.6904 22.125 21.6025C22.125 22.5146 21.8055 23.2882 21.1666 23.9235C20.5277 24.5588 19.7508 24.8759 18.8388 24.875ZM18.8456 23.5C19.3855 23.5 19.8379 23.3176 20.2027 22.9527C20.5676 22.5879 20.75 22.136 20.75 21.597C20.75 21.058 20.5676 20.6056 20.2027 20.2399C19.8379 19.8741 19.386 19.6917 18.847 19.6926C18.308 19.6935 17.8556 19.876 17.4899 20.2399C17.1241 20.6038 16.9417 21.0557 16.9426 21.5956C16.9435 22.1355 17.126 22.5879 17.4899 22.9527C17.8538 23.3176 18.3048 23.5 18.8456 23.5ZM3.37825 14.403C3.92458 14.403 4.38292 14.2206 4.75325 13.8558C5.12267 13.4909 5.30737 13.039 5.30737 12.5C5.30737 11.961 5.12267 11.5091 4.75325 11.1442C4.38383 10.7794 3.9255 10.597 3.37825 10.597C2.84567 10.597 2.39971 10.7794 2.04038 11.1442C1.68104 11.5091 1.50092 11.961 1.5 12.5C1.49908 13.039 1.67921 13.4914 2.04038 13.8571C2.40154 14.2229 2.8475 14.4048 3.37825 14.403ZM18.847 5.30737C19.386 5.30737 19.8379 5.12496 20.2027 4.76012C20.5676 4.39529 20.75 3.94292 20.75 3.403C20.75 2.86308 20.5676 2.41117 20.2027 2.04725C19.8379 1.68333 19.386 1.50092 18.847 1.5C18.308 1.49908 17.8556 1.6815 17.4899 2.04725C17.1241 2.413 16.9417 2.86538 16.9426 3.40438C16.9435 3.94338 17.126 4.39529 17.4899 4.76012C17.8538 5.12496 18.3062 5.30737 18.847 5.30737Z" fill="white" style="fill:white;fill-opacity:1;"/>
</svg>
