<svg width="22" height="25" viewBox="0 0 22 25" fill="none" xmlns="http://www.w3.org/2000/svg">
    <path d="M18.7138 24.75C17.8026 24.75 17.0294 24.4315 16.3941 23.7944C15.7598 23.1564 15.4426 22.3818 15.4426 21.4706C15.4426 21.3331 15.5031 20.9862 15.6241 20.4298L5.72825 14.5544C5.43125 14.8972 5.06779 15.1662 4.63788 15.3615C4.20796 15.5567 3.74642 15.6544 3.25325 15.6544C2.34942 15.6544 1.58125 15.3326 0.94875 14.6891C0.31625 14.0456 0 13.2742 0 12.375C0 11.4758 0.31625 10.7044 0.94875 10.0609C1.58125 9.41738 2.34942 9.09562 3.25325 9.09562C3.7455 9.09562 4.20704 9.19325 4.63788 9.3885C5.06871 9.58375 5.43217 9.85325 5.72825 10.197L15.6255 4.34637C15.5613 4.16854 15.515 3.99208 15.4866 3.817C15.4573 3.641 15.4426 3.46133 15.4426 3.278C15.4426 2.36775 15.7621 1.59362 16.401 0.955625C17.0399 0.318542 17.8154 0 18.7275 0C19.6396 0 20.4133 0.319458 21.0485 0.958375C21.6838 1.59729 22.0009 2.37279 22 3.28487C21.9991 4.19696 21.6805 4.97062 21.0444 5.60588C20.4082 6.24113 19.6336 6.55829 18.7206 6.55737C18.2238 6.55737 17.7655 6.45562 17.3456 6.25212C16.9258 6.04862 16.5683 5.775 16.2731 5.43125L6.3745 11.3066C6.43867 11.4845 6.48496 11.6614 6.51337 11.8374C6.54271 12.0125 6.55737 12.1917 6.55737 12.375C6.55737 12.5583 6.54271 12.7375 6.51337 12.9126C6.48404 13.0877 6.43821 13.2646 6.37587 13.4434L16.2731 19.3187C16.5692 18.975 16.9267 18.7014 17.3456 18.4979C17.7655 18.2944 18.2238 18.1926 18.7206 18.1926C19.6318 18.1926 20.4064 18.5116 21.0444 19.1496C21.6815 19.7895 22 20.5654 22 21.4775C22 22.3896 21.6805 23.1633 21.0416 23.7985C20.4027 24.4338 19.6258 24.7509 18.7138 24.75Z" fill="white" style="fill:white;fill-opacity:1;"/>
</svg>
